<?xml version="1.0" encoding="UTF-8" standalone="no"?>
<svg
   width="1400"
   height="560"
   viewBox="0 0 1400 560"
   version="1.1"
   xml:space="preserve"
   style="clip-rule:evenodd;fill-rule:evenodd;stroke-linejoin:round;stroke-miterlimit:2"
   id="svg14"
   sodipodi:docname="logo.svg"
   inkscape:version="1.4 (86a8ad7, 2024-10-11)"
   xmlns:inkscape="http://www.inkscape.org/namespaces/inkscape"
   xmlns:sodipodi="http://sodipodi.sourceforge.net/DTD/sodipodi-0.dtd"
   xmlns="http://www.w3.org/2000/svg"
   xmlns:svg="http://www.w3.org/2000/svg"><defs
   id="defs14" /><sodipodi:namedview
   id="namedview14"
   pagecolor="#ffffff"
   bordercolor="#000000"
   borderopacity="0.25"
   inkscape:showpageshadow="2"
   inkscape:pageopacity="0.0"
   inkscape:pagecheckerboard="0"
   inkscape:deskcolor="#d1d1d1"
   inkscape:zoom="0.39360436"
   inkscape:cx="355.68712"
   inkscape:cy="367.11992"
   inkscape:window-width="1920"
   inkscape:window-height="1057"
   inkscape:window-x="-8"
   inkscape:window-y="-8"
   inkscape:window-maximized="1"
   inkscape:current-layer="svg14" />
    <g
   id="Fondo"
   transform="matrix(1.7655517,0,0,1.7655517,-204.15539,-224.57852)">
        <path
   d="m 207.078,347.5 c 0.024,-61.237 -0.069,-61.386 0.473,-61.952 1.209,-1.264 50.484,-0.291 65.951,-0.498 50.981,-0.686 55.243,-66.133 9.048,-75.803 -3.48,-0.729 -123.134,-0.194 -156.061,-0.349 -3.865,-0.018 -2.722,-5.868 -2.723,-12.398 -0.013,-55.46 0.052,-55.601 0.604,-56.139 0.464,-0.453 0.563,-0.572 53.13,-0.546 119.319,0.061 120.677,-1.557 144.166,9.311 99.503,46.035 74.473,197.578 -40.163,205.418 -4.707,0.322 -73.04,0.142 -73.046,0.14 -2.987,-0.694 -1.271,-1.991 -1.379,-7.184 z"
   id="path1" />
        <path
   d="m 146.5,223.111 c 45.138,-0.02 45.847,-0.182 46.26,1.309 0.171,0.618 0.041,0.606 0.071,89.079 0.003,9.281 0.039,113.568 -0.094,116.021 -0.146,2.699 -1.604,2.267 -38.237,2.257 -29.078,-0.008 -30.711,0.568 -30.747,-2.291 -0.266,-21.51 0.003,-184.907 0.029,-200.986 0.001,-0.445 0.009,-5.23 1.652,-5.322 1.263,-0.07 19.381,-0.067 21.066,-0.067 z"
   id="path2" />
        <path
   d="m 787.957,223.557 c 1.008,-5.635 0.938,-5.586 2.246,-11.132 3.477,-14.745 18.356,-35.809 44.279,-39.063 71.864,-9.021 86.25,83.744 37.776,111.722 -13.354,7.708 -35.959,8.72 -50.844,2.624 -40.148,-16.443 -33.541,-62.903 -33.457,-64.151 z m 60.597,46.39 c 0.061,-0.011 19.742,-0.647 25.173,-25.399 7.113,-32.415 -14.426,-59.974 -43.054,-47.674 -24.362,10.468 -29.229,76.634 17.881,73.073 z"
   style="fill:#010101"
   id="path3" />
        <path
   d="m 541.029,220.405 c -1.575,5.505 -2.378,12.578 -12.693,20.894 -16.057,12.943 -52.851,3.259 -53.046,9.177 -0.389,11.778 0.947,37.44 -0.983,38.539 -1.307,0.744 -1.358,0.219 -18.807,0.154 -3.8,-0.015 -5.502,1.154 -5.567,-2.678 -0.086,-5.056 0.055,-96.591 0.068,-104.99 0.006,-4.076 -1.649,-6.051 2.494,-6.105 56.585,-0.739 59.003,0.002 63.891,1.499 31.417,9.624 25.007,40.873 24.643,43.51 z M 482.5,195.072 c -1.68,0.038 -3.362,-0.038 -5.042,0 -2.504,0.057 -2.246,1.371 -2.186,25.428 0.014,5.31 -2.149,7.946 3.228,7.978 16.962,0.099 35.976,2.368 38.071,-12.967 3.284,-24.035 -20.743,-20.452 -34.071,-20.439 z"
   style="fill:#010101"
   id="path4" />
        <path
   d="m 573.502,264.161 c -4.814,0.385 -4.964,0.943 -6.609,5.486 -6.209,17.148 -5.78,17.349 -6.734,18.613 -1.14,1.511 -1.506,1.035 -23.639,0.938 -2.81,-0.013 -0.932,-3.546 1.079,-8.658 19.272,-48.968 18.753,-49.096 37.687,-98.125 1.932,-5.002 0.862,-7.024 6.214,-7.047 22.054,-0.095 22.281,0.286 22.851,1.226 1.785,2.945 1.502,3.081 15.736,40.074 24.781,64.407 24.955,64.329 27.071,69.943 1.274,3.381 -3.363,2.583 -17.658,2.571 -4.407,-0.004 -6.904,2.268 -9.676,-4.815 -4.462,-11.401 -4.124,-11.486 -6.616,-17.753 -1.487,-3.739 -8.574,-2.436 -9.709,-2.436 z M 594.5,245.065 c 2.305,0.008 10.929,0.79 10.453,-1.593 -0.512,-2.565 -1.018,-2.386 -10.719,-30.885 -0.314,-0.925 -3.181,-11.27 -4.33,-7.853 -1.069,3.178 -13.351,39.708 -13.34,39.728 0.494,0.852 5.08,0.614 17.936,0.603 z"
   style="fill:#010101"
   id="path5" />
        <path
   d="m 485.449,396.08 c -2.809,0.127 -34.244,1.547 -35.149,-0.45 -0.644,-1.419 -0.114,-18.761 -0.361,-47.129 -0.241,-27.784 -0.851,-28.798 1.416,-29.451 0.554,-0.16 29.106,-0.488 34.175,0.263 44.742,6.637 48.009,66.888 2.023,76.445 -0.695,0.145 -1.409,0.178 -2.104,0.322 z m 2.17,-9.11 c 32.185,-9.859 27.31,-43.795 9.179,-54.942 -2.427,-1.491 -10.273,-6.315 -35.304,-4.615 -2.92,0.198 -2.191,1.766 -2.223,28.086 -0.038,31.011 -0.362,32.428 2.252,32.522 15.721,0.566 24.032,-0.729 26.096,-1.051 z"
   style="fill:#020202"
   id="path6" />
        <path
   d="m 637.218,190.5 c 0.009,-7.49 -0.244,-13.873 0.618,-14.635 0.81,-0.716 8.216,-0.506 13.664,-0.502 78.136,0.054 78.888,-0.384 79.578,1.252 0.163,0.389 0.154,18.359 -0.023,18.756 -1.249,2.807 -31.593,0.351 -33.351,1.516 -2.212,1.466 0.147,89.941 -1.28,91.556 -1.186,1.343 -23.582,0.814 -24.137,0.355 -1.968,-1.629 -0.055,-89.512 -1.063,-91.18 -0.604,-1.001 -7.101,-1.008 -7.724,-1.009 -22.111,-0.023 -22.087,0.039 -24.007,0.012 -4.057,-0.058 -2.142,-2.065 -2.275,-6.121 z"
   id="path7" />
        <path
   d="m 745.104,202.499 c 0.03,-25.38 -0.618,-27.048 2.39,-27.12 21.423,-0.513 21.909,-0.423 22.684,1.22 0.097,0.206 0.301,111.062 -0.099,111.7 -0.982,1.567 -23.839,1.147 -24.594,0.212 -0.241,-0.299 -0.424,-0.324 -0.381,-86.012 z"
   id="path8" />
        <path
   d="m 817.325,384.589 c -3.016,-6.454 -2.135,-7.43 -4.802,-8.169 -2.958,-0.819 -36.828,-0.15 -40.029,-0.087 -3.12,0.061 -5.115,6.922 -9.448,16.972 -2.374,5.505 -10.528,2.97 -10.638,2.221 -0.141,-0.956 34.528,-75.54 34.931,-76.156 1.076,-1.642 8.187,-1.081 8.931,-0.532 1.691,1.247 36.07,76.573 36.064,76.644 -0.096,1.243 -7.193,0.936 -7.822,0.909 -1.421,-0.061 -1.824,-0.177 -7.187,-11.802 z m -29.092,-47.222 c -11.941,27.498 -15.77,30.561 -10.755,30.557 30.213,-0.029 32.176,1.126 31.709,-1.369 -0.539,-2.877 -1.667,-2.408 -15.316,-33.227 -0.117,-0.266 -1.463,-3.306 -2.343,-2.775 -0.519,0.313 -0.469,0.282 -3.295,6.814 z"
   style="fill:#020202"
   id="path9" />
        <path
   d="m 610.499,326.143 c -48.722,2.908 -34.817,75.175 10.901,61.984 1.081,-0.312 11.476,-3.311 11.804,-7.645 1.275,-16.863 -0.279,-17.222 -1.666,-17.27 -8.529,-0.291 -21.715,1.424 -22.209,-1.687 -0.974,-6.118 1.612,-6.296 2.146,-6.333 0.046,-0.003 28.725,-0.033 29.076,0.034 1.514,0.289 1.761,0.933 1.6,25.271 -0.034,5.28 0.488,6.82 -9.92,12.527 -25.069,13.746 -68.244,-1.497 -60.781,-43.534 5.364,-30.214 42.693,-41.629 66.67,-22.55 2.561,2.038 -3.529,8.426 -5.392,7.18 -9.769,-6.533 -9.877,-6.765 -22.229,-7.977 z"
   style="fill:#010202"
   id="path10" />
        <path
   d="m 690.188,323.5 c 0.318,-3.158 -0.782,-4.561 2.329,-4.601 4.637,-0.06 41.386,-0.535 57.966,-0.021 3.698,0.115 2.06,7.467 2,7.614 -0.897,2.171 -24.251,0.141 -25.802,1.302 -1.747,1.308 -0.372,55.685 -0.845,66.754 -0.092,2.17 -6.719,1.886 -7.323,1.861 -2.587,-0.111 -1.577,-2.179 -1.758,-65.911 -0.012,-4.268 -3.7,-3.061 -17.255,-3.048 -6.129,0.007 -8.853,2.22 -9.312,-3.95 z"
   style="fill:#020202"
   id="path11" />
        <path
   d="m 847.119,331.501 c 0.002,-2.729 -0.197,-11.424 0.366,-12.014 0.713,-0.746 6.658,-0.947 8.143,-0.142 1.33,0.721 0.407,44.013 0.648,66.166 0.041,3.836 4.335,2.245 41.241,2.538 4.365,0.034 2.782,7.458 1.807,8.107 -0.838,0.557 -50.593,0.225 -50.784,0.184 -1.727,-0.377 -1.358,-1.297 -1.421,-64.839 z"
   style="fill:#010101"
   id="path12" />
        <path
   d="m 550.089,357.5 c -0.002,37.692 0.303,38.85 -1.604,38.918 -0.605,0.021 -6.839,0.243 -7.498,-1.083 -0.279,-0.56 -0.096,-39.93 -0.157,-70.837 -0.001,-0.468 -0.011,-5.481 1.711,-5.6 0.605,-0.041 6.969,-0.48 7.435,1.474 0.131,0.547 0.118,0.49 0.113,37.128 z"
   style="fill:#010101"
   id="path13" />
        <path
   d="m 664.15,338.499 c 0.006,-13.826 -0.145,-18.307 0.433,-18.933 0.928,-1.005 7.886,-1.462 8.598,0.982 0.16,0.55 0.08,67.114 0.073,72.95 -10e-4,0.658 -0.005,4.608 -7.717,2.855 -1.457,-0.331 -1.424,-1.049 -1.387,-57.854 z"
   style="fill:#020302"
   id="path14" />
    </g>
</svg>
